<svg width="80" height="21" viewBox="0 0 80 21" fill="none" xmlns="http://www.w3.org/2000/svg">
<g clip-path="url(#clip0_4064_25229)">
<path d="M10.3317 20.5424C15.8986 20.5424 20.4115 15.9868 20.4115 10.3673C20.4115 4.74779 15.8986 0.192261 10.3317 0.192261C4.76475 0.192261 0.251846 4.74779 0.251846 10.3673C0.251846 15.9868 4.76475 20.5424 10.3317 20.5424Z" fill="#FF6600"/>
<path fill-rule="evenodd" clip-rule="evenodd" d="M13.7715 17.7584C16.1609 16.5927 17.6167 13.8892 17.6167 10.975C17.6167 6.84545 14.355 3.49097 10.3317 3.49097C8.56881 3.49097 6.95333 4.13582 5.68797 5.20851C5.67569 5.22091 5.66954 5.22091 5.66954 5.22711C5.61426 5.27052 5.56512 5.31392 5.50984 5.36352C3.99264 6.71524 3.03441 8.6746 3.03441 10.8758C3.03441 11.037 3.04669 11.1858 3.05284 11.347V11.3594C3.21254 15.4766 5.79239 18.9613 9.41647 20.406C9.4349 20.4184 9.45947 20.4184 9.4779 20.4246C9.55161 20.4556 9.6376 20.468 9.7236 20.468C10.1351 20.468 10.3624 20.127 10.3624 19.7053V18.7628C10.3808 18.7628 10.4054 18.7628 10.4238 18.7628C11.5479 18.7566 12.8256 18.2296 13.7715 17.7584Z" fill="#FF8E43"/>
<path fill-rule="evenodd" clip-rule="evenodd" d="M12.973 18.087C14.9816 17.1011 16.4435 14.9371 16.4435 12.4879C16.4435 9.01562 13.7039 6.20679 10.3256 6.20679C8.85136 6.20679 7.48773 6.74003 6.42507 7.64531C6.41279 7.65771 6.41279 7.65771 6.40665 7.66391C6.36365 7.69491 6.32065 7.73832 6.27765 7.78172C5.00615 8.91021 4.19534 10.572 4.19534 12.4135C4.19534 12.5437 4.20763 12.6677 4.20763 12.8103V12.8227C4.33662 16.2764 6.51107 19.2031 9.55161 20.4246C9.57004 20.437 9.58232 20.437 9.60689 20.4432C9.66831 20.4618 9.74202 20.4866 9.82188 20.4866C10.172 20.4866 10.3501 20.1952 10.3501 19.8417V18.769C10.3317 18.769 10.3686 18.769 10.3501 18.769C11.2838 18.7566 12.1745 18.4838 12.973 18.087Z" fill="#FFB788"/>
<path d="M15.344 13.8645C15.344 11.0556 13.102 8.78003 10.344 8.78003C7.66585 8.78003 5.47912 10.913 5.34398 13.5916C5.34398 13.6784 5.3317 13.7652 5.3317 13.8583C5.3317 13.9451 5.3317 14.0319 5.34398 14.1249C5.4484 16.9151 7.22359 19.2837 9.7113 20.2696C9.72359 20.282 9.74201 20.282 9.7543 20.2882C9.80958 20.3068 9.85872 20.3192 9.92629 20.3192C10.215 20.3192 10.3624 20.0836 10.3624 19.8046L10.3747 18.7753C13.0774 18.7195 15.344 16.6299 15.344 13.8645Z" fill="white"/>
<path d="M9.43489 13.7156C9.43489 14.0567 9.15848 14.3357 8.82064 14.3357C8.4828 14.3357 8.20639 14.0567 8.20639 13.7156C8.20639 13.3746 8.4828 13.0956 8.82064 13.0956C9.15848 13.0956 9.43489 13.3746 9.43489 13.7156Z" fill="black"/>
<path d="M12.4509 13.7156C12.4509 14.0567 12.1745 14.3357 11.8366 14.3357C11.4988 14.3357 11.2224 14.0567 11.2224 13.7156C11.2224 13.3746 11.4988 13.0956 11.8366 13.0956C12.1867 13.0956 12.4509 13.3746 12.4509 13.7156Z" fill="black"/>
<path fill-rule="evenodd" clip-rule="evenodd" d="M21.4189 17.1382C21.9717 15.9043 22.5369 14.6642 23.0835 13.4303C24.57 10.1068 25.7187 6.77095 27.2052 3.44127C27.3341 3.16224 27.4939 3.04443 27.7887 3.04443C28.5504 3.05683 30.0061 3.05683 30.7617 3.04443C31.0135 3.04443 31.1732 3.14984 31.2838 3.39786C33.3108 7.93044 35 12.4816 37.027 17.0142C37.0577 17.0762 37.0823 17.1506 37.0823 17.2312C37.0946 17.4048 37.0209 17.4978 36.8612 17.5288C36.8059 17.5413 36.7445 17.5412 36.6892 17.5412C35.7432 17.5412 34.1093 17.5288 33.1634 17.5412C32.887 17.5412 32.715 17.4234 32.5983 17.163C32.3833 16.667 32.1499 16.1895 31.9287 15.7059C31.855 15.5447 31.7506 15.4827 31.5909 15.4827C29.57 15.4827 28.9373 15.4827 26.9165 15.4827C26.7445 15.4827 26.64 15.5571 26.5663 15.7183C26.3452 16.2143 26.1118 16.6918 25.8845 17.2002C25.7801 17.4482 25.6081 17.5537 25.3563 17.5537C24.3919 17.5413 22.7334 17.5537 21.7568 17.5537C21.6093 17.5537 21.4803 17.5226 21.4066 17.3738C21.4189 17.287 21.4189 17.2126 21.4189 17.1382ZM29.2015 12.0972C29.5639 12.0972 29.9263 12.0972 30.2826 12.0972C30.5344 12.0972 30.6142 11.9794 30.5037 11.7438C30.1536 10.9625 29.8034 10.1874 29.441 9.40617C29.398 9.30696 29.3366 9.24495 29.2199 9.24495C29.1032 9.24495 29.0295 9.30696 28.9865 9.40617C28.6364 10.1874 28.274 10.9625 27.9238 11.7438C27.8194 11.9794 27.8931 12.0972 28.145 12.0972C28.5012 12.1096 28.8513 12.0972 29.2015 12.0972Z" fill="white"/>
<path fill-rule="evenodd" clip-rule="evenodd" d="M64.3489 3.43509C64.3489 3.10026 64.4226 3.02585 64.742 3.02585C65.6327 3.02585 66.5172 3.02585 67.4079 3.02585C67.6106 3.02585 67.758 3.08786 67.8993 3.24907C69.1646 4.98522 71.7015 8.94115 71.7875 9.02796C71.9472 9.29458 72.199 9.20777 72.3096 9.02796C72.328 8.98455 74.871 5.02862 76.1671 3.23667C76.2838 3.08786 76.4312 3.01965 76.6155 3.01965C77.5369 3.01965 78.4767 3.01965 79.398 3.01965C79.6622 3.01965 79.7604 3.11886 79.7604 3.39788C79.7604 4.42717 79.7604 13.5729 79.7604 17.1072C79.7604 17.2064 79.7604 17.3305 79.7052 17.3987C79.6499 17.4669 79.5332 17.5165 79.4533 17.5165C78.4459 17.5289 77.4263 17.5289 76.4128 17.5165C76.2346 17.5165 76.1609 17.4421 76.1486 17.2622C76.1364 17.2002 76.1486 17.1444 76.1486 17.0824C76.1486 14.7572 76.1486 13.1389 76.1486 10.8137C76.1486 10.7269 76.1486 10.6525 76.1364 10.5657C76.1179 10.4293 76.0074 10.3487 75.8845 10.4169C75.8231 10.4479 75.7494 10.5657 75.7494 10.5657C75.7494 10.5657 72.285 16.0345 72.2543 16.0655C72.1499 16.1958 72.0086 16.1834 71.8919 16.0531C71.2838 15.3339 68.4644 10.6153 68.4644 10.6153C68.4644 10.6153 68.3784 10.4541 68.2924 10.3983C68.1941 10.3363 68.0774 10.4107 68.0712 10.5161C68.059 10.6029 68.059 10.6959 68.059 10.7951C68.059 13.1327 68.059 14.7634 68.059 17.101C68.059 17.1878 68.059 17.2746 68.0405 17.3491C67.9975 17.4979 67.8686 17.5227 67.7457 17.5227C67.1806 17.5227 66.6216 17.5227 66.0565 17.5227C65.6204 17.5227 65.1843 17.5227 64.7482 17.5227C64.4963 17.5227 64.4103 17.4235 64.4103 17.1692C64.3489 14.8812 64.3489 5.71688 64.3489 3.43509Z" fill="white"/>
<path fill-rule="evenodd" clip-rule="evenodd" d="M41.1302 3.02585C42.9914 3.02585 44.3366 3.02585 46.2039 3.02585C46.2899 3.02585 46.3636 3.02585 46.4496 3.04446C46.6093 3.07546 46.6953 3.17467 46.7138 3.33588C46.7138 3.36688 46.726 3.39789 46.726 3.43509C46.726 4.40857 46.726 5.39445 46.726 6.37413C46.726 6.65316 46.5971 6.77097 46.3022 6.77097C45.1536 6.77097 44.527 6.77097 43.3722 6.77097C42.9914 6.77097 42.9484 6.80197 42.9484 7.1864C42.9484 10.4479 42.9484 13.6969 42.9484 16.9522C42.9484 17.008 42.9484 17.07 42.9484 17.1258C42.9361 17.4235 42.8194 17.5413 42.5246 17.5413C41.5786 17.5413 40.6327 17.5413 39.6867 17.5413C39.355 17.5413 39.2383 17.4235 39.2383 17.0824C39.2383 13.8148 39.2383 10.5347 39.2383 7.26081C39.2383 6.80197 39.2199 6.77717 38.7592 6.77717C37.6658 6.77717 37.0823 6.77717 35.9889 6.77717C35.6143 6.77717 35.5098 6.67176 35.5098 6.29353C35.5098 5.36345 35.5098 4.43957 35.5098 3.50329C35.5098 3.13746 35.6143 3.01965 35.9889 3.01965C37.8686 3.02585 39.2383 3.02585 41.1302 3.02585Z" fill="white"/>
<path fill-rule="evenodd" clip-rule="evenodd" d="M55.4545 3.21802C51.5909 3.21802 48.4214 6.45469 48.4214 10.423C48.4214 14.3914 51.5786 17.628 55.4423 17.628C59.3059 17.628 62.4754 14.3914 62.4754 10.423C62.4877 6.45469 59.3305 3.21802 55.4545 3.21802ZM55.4484 13.9697C53.5258 13.9697 51.984 12.37 51.9963 10.3982C52.0086 8.43885 53.5565 6.85152 55.4668 6.85772C57.3894 6.87012 58.9312 8.44506 58.9312 10.4044C58.9312 12.3886 57.371 13.9821 55.4484 13.9697Z" fill="white"/>
</g>
<defs>
<clipPath id="clip0_4064_25229">
<rect width="80" height="20.7407" fill="white"/>
</clipPath>
</defs>
</svg>
