<svg width="80" height="21" viewBox="0 0 80 21" fill="none" xmlns="http://www.w3.org/2000/svg">
<g clip-path="url(#clip0_4064_23338)">
<path d="M10.3317 20.5422C15.8986 20.5422 20.4115 15.9867 20.4115 10.3672C20.4115 4.74766 15.8986 0.192139 10.3317 0.192139C4.76473 0.192139 0.251831 4.74766 0.251831 10.3672C0.251831 15.9867 4.76473 20.5422 10.3317 20.5422Z" fill="#FF6600"/>
<path fill-rule="evenodd" clip-rule="evenodd" d="M13.7715 17.7581C16.161 16.5924 17.6167 13.889 17.6167 10.9748C17.6167 6.8452 14.3551 3.49072 10.3317 3.49072C8.56882 3.49072 6.95334 4.13558 5.68799 5.20827C5.6757 5.22067 5.66956 5.22067 5.66956 5.22687C5.61428 5.27027 5.56514 5.31368 5.50985 5.36328C3.99265 6.71499 3.03442 8.67436 3.03442 10.8755C3.03442 11.0368 3.04671 11.1856 3.05285 11.3468V11.3592C3.21256 15.4763 5.79241 18.961 9.41649 20.4057C9.43492 20.4181 9.45949 20.4181 9.47791 20.4243C9.55162 20.4553 9.63762 20.4677 9.72361 20.4677C10.1352 20.4677 10.3624 20.1267 10.3624 19.7051V18.7626C10.3809 18.7626 10.4054 18.7626 10.4239 18.7626C11.5479 18.7564 12.8256 18.2294 13.7715 17.7581Z" fill="#FF8E43"/>
<path fill-rule="evenodd" clip-rule="evenodd" d="M12.973 18.0867C14.9816 17.1009 16.4435 14.9369 16.4435 12.4877C16.4435 9.01538 13.7039 6.20654 10.3255 6.20654C8.85133 6.20654 7.4877 6.73979 6.42504 7.64506C6.41276 7.65746 6.41276 7.65746 6.40661 7.66367C6.36362 7.69467 6.32062 7.73807 6.27762 7.78148C5.00612 8.90997 4.19531 10.5717 4.19531 12.4133C4.19531 12.5435 4.2076 12.6675 4.2076 12.8101V12.8225C4.33659 16.2762 6.51104 19.2028 9.55158 20.4243C9.57 20.4367 9.58229 20.4367 9.60686 20.4429C9.66828 20.4615 9.74199 20.4863 9.82185 20.4863C10.172 20.4863 10.3501 20.1949 10.3501 19.8415V18.7688C10.3317 18.7688 10.3685 18.7688 10.3501 18.7688C11.2838 18.7564 12.1744 18.4836 12.973 18.0867Z" fill="#FFB788"/>
<path d="M15.3439 13.8642C15.3439 11.0554 13.1019 8.77979 10.3439 8.77979C7.66582 8.77979 5.47908 10.9128 5.34395 13.5914C5.34395 13.6782 5.33167 13.765 5.33167 13.858C5.33167 13.9448 5.33166 14.0316 5.34395 14.1246C5.44837 16.9149 7.22356 19.2835 9.71127 20.2693C9.72356 20.2817 9.74198 20.2817 9.75427 20.2879C9.80955 20.3066 9.85869 20.319 9.92626 20.319C10.215 20.319 10.3624 20.0833 10.3624 19.8043L10.3747 18.775C13.0774 18.7192 15.3439 16.6296 15.3439 13.8642Z" fill="white"/>
<path d="M9.43492 13.7155C9.43492 14.0565 9.15851 14.3356 8.82067 14.3356C8.48283 14.3356 8.20642 14.0565 8.20642 13.7155C8.20642 13.3745 8.48283 13.0955 8.82067 13.0955C9.15851 13.0955 9.43492 13.3745 9.43492 13.7155Z" fill="black"/>
<path d="M12.4509 13.7155C12.4509 14.0565 12.1745 14.3356 11.8367 14.3356C11.4988 14.3356 11.2224 14.0565 11.2224 13.7155C11.2224 13.3745 11.4988 13.0955 11.8367 13.0955C12.1868 13.0955 12.4509 13.3745 12.4509 13.7155Z" fill="black"/>
<path fill-rule="evenodd" clip-rule="evenodd" d="M21.4189 17.1382C21.9717 15.9043 22.5368 14.6642 23.0835 13.4303C24.57 10.1068 25.7187 6.77095 27.2051 3.44127C27.3341 3.16224 27.4938 3.04443 27.7887 3.04443C28.5503 3.05683 30.0061 3.05683 30.7617 3.04443C31.0135 3.04443 31.1732 3.14984 31.2838 3.39786C33.3108 7.93044 35 12.4816 37.027 17.0142C37.0577 17.0762 37.0823 17.1506 37.0823 17.2312C37.0946 17.4048 37.0209 17.4978 36.8612 17.5288C36.8059 17.5413 36.7445 17.5412 36.6892 17.5412C35.7432 17.5412 34.1093 17.5288 33.1634 17.5412C32.887 17.5412 32.715 17.4234 32.5983 17.163C32.3833 16.667 32.1499 16.1895 31.9287 15.7059C31.855 15.5447 31.7506 15.4827 31.5909 15.4827C29.57 15.4827 28.9373 15.4827 26.9164 15.4827C26.7445 15.4827 26.64 15.5571 26.5663 15.7183C26.3452 16.2143 26.1118 16.6918 25.8845 17.2002C25.7801 17.4482 25.6081 17.5537 25.3562 17.5537C24.3919 17.5413 22.7334 17.5537 21.7567 17.5537C21.6093 17.5537 21.4803 17.5226 21.4066 17.3738C21.4189 17.287 21.4189 17.2126 21.4189 17.1382ZM29.2015 12.0972C29.5639 12.0972 29.9263 12.0972 30.2825 12.0972C30.5344 12.0972 30.6142 11.9794 30.5037 11.7438C30.1535 10.9625 29.8034 10.1874 29.441 9.40617C29.398 9.30696 29.3366 9.24495 29.2199 9.24495C29.1032 9.24495 29.0295 9.30696 28.9865 9.40617C28.6363 10.1874 28.2739 10.9625 27.9238 11.7438C27.8194 11.9794 27.8931 12.0972 28.1449 12.0972C28.5012 12.1096 28.8513 12.0972 29.2015 12.0972Z" fill="black"/>
<path fill-rule="evenodd" clip-rule="evenodd" d="M64.3489 3.43497C64.3489 3.10014 64.4226 3.02573 64.742 3.02573C65.6327 3.02573 66.5172 3.02573 67.4078 3.02573C67.6106 3.02573 67.758 3.08774 67.8992 3.24895C69.1646 4.9851 71.7015 8.94103 71.7875 9.02784C71.9472 9.29446 72.199 9.20765 72.3096 9.02784C72.328 8.98443 74.871 5.0285 76.1671 3.23655C76.2838 3.08774 76.4312 3.01953 76.6155 3.01953C77.5368 3.01953 78.4766 3.01953 79.398 3.01953C79.6621 3.01953 79.7604 3.11874 79.7604 3.39776C79.7604 4.42705 79.7604 13.5728 79.7604 17.1071C79.7604 17.2063 79.7604 17.3303 79.7051 17.3985C79.6499 17.4667 79.5332 17.5163 79.4533 17.5163C78.4459 17.5287 77.4263 17.5287 76.4128 17.5163C76.2346 17.5163 76.1609 17.4419 76.1486 17.2621C76.1363 17.2001 76.1486 17.1443 76.1486 17.0823C76.1486 14.7571 76.1486 13.1388 76.1486 10.8136C76.1486 10.7268 76.1486 10.6524 76.1363 10.5656C76.1179 10.4292 76.0074 10.3485 75.8845 10.4168C75.8231 10.4478 75.7494 10.5656 75.7494 10.5656C75.7494 10.5656 72.285 16.0344 72.2543 16.0654C72.1499 16.1956 72.0086 16.1832 71.8919 16.053C71.2838 15.3338 68.4644 10.6152 68.4644 10.6152C68.4644 10.6152 68.3784 10.454 68.2924 10.3981C68.1941 10.3361 68.0774 10.4106 68.0712 10.516C68.0589 10.6028 68.059 10.6958 68.059 10.795C68.059 13.1326 68.059 14.7633 68.059 17.1009C68.059 17.1877 68.0589 17.2745 68.0405 17.3489C67.9975 17.4977 67.8685 17.5225 67.7457 17.5225C67.1806 17.5225 66.6216 17.5225 66.0565 17.5225C65.6204 17.5225 65.1843 17.5225 64.7481 17.5225C64.4963 17.5225 64.4103 17.4233 64.4103 17.1691C64.3489 14.8811 64.3489 5.71676 64.3489 3.43497Z" fill="black"/>
<path fill-rule="evenodd" clip-rule="evenodd" d="M41.1302 3.02573C42.9913 3.02573 44.3365 3.02573 46.2039 3.02573C46.2899 3.02573 46.3636 3.02573 46.4496 3.04433C46.6093 3.07534 46.6953 3.17454 46.7137 3.33576C46.7137 3.36676 46.726 3.39776 46.726 3.43497C46.726 4.40845 46.726 5.39433 46.726 6.37401C46.726 6.65304 46.597 6.77085 46.3021 6.77085C45.1535 6.77085 44.527 6.77085 43.3722 6.77085C42.9913 6.77085 42.9483 6.80185 42.9483 7.18628C42.9483 10.4478 42.9483 13.6968 42.9483 16.9521C42.9483 17.0079 42.9483 17.0699 42.9483 17.1257C42.9361 17.4233 42.8193 17.5411 42.5245 17.5411C41.5786 17.5411 40.6326 17.5411 39.6867 17.5411C39.355 17.5411 39.2383 17.4233 39.2383 17.0823C39.2383 13.8146 39.2383 10.5346 39.2383 7.26069C39.2383 6.80185 39.2198 6.77705 38.7592 6.77705C37.6658 6.77705 37.0823 6.77705 35.9889 6.77705C35.6142 6.77705 35.5098 6.67164 35.5098 6.29341C35.5098 5.36333 35.5098 4.43945 35.5098 3.50317C35.5098 3.13734 35.6142 3.01953 35.9889 3.01953C37.8685 3.02573 39.2383 3.02573 41.1302 3.02573Z" fill="black"/>
<path fill-rule="evenodd" clip-rule="evenodd" d="M55.4546 3.21802C51.5909 3.21802 48.4214 6.45469 48.4214 10.423C48.4214 14.3914 51.5786 17.628 55.4423 17.628C59.3059 17.628 62.4754 14.3914 62.4754 10.423C62.4877 6.45469 59.3305 3.21802 55.4546 3.21802ZM55.4484 13.9697C53.5258 13.9697 51.984 12.37 51.9963 10.3982C52.0086 8.43885 53.5565 6.85152 55.4668 6.85772C57.3894 6.87012 58.9312 8.44506 58.9312 10.4044C58.9312 12.3886 57.371 13.9821 55.4484 13.9697Z" fill="black"/>
</g>
<defs>
<clipPath id="clip0_4064_23338">
<rect width="80" height="20.7407" fill="white"/>
</clipPath>
</defs>
</svg>
